<?xml version="1.0" encoding="utf-8"?>
<!-- Generator: Adobe Illustrator 19.2.1, SVG Export Plug-In . SVG Version: 6.00 Build 0)  -->
<svg version="1.1" id="Слой_1" xmlns="http://www.w3.org/2000/svg" xmlns:xlink="http://www.w3.org/1999/xlink" x="0px" y="0px"
	 viewBox="0 0 141.7 28.4" style="enable-background:new 0 0 141.7 28.4;" xml:space="preserve">
<path d="M24,27.7h-8.6V27c0,0,2.4,0.1,1.6-1.6l-6.2-8.8c-0.1-0.1-0.1-0.1-0.2-0.2c-0.2-0.2-0.3-0.4-0.5-0.6
	c-0.2-0.2-0.3-0.4-0.4-0.6c-0.1-0.1-0.2-0.2-0.3-0.3c-0.3-0.3-0.6-0.6-1-0.7l-0.3-0.1C8,14,7.7,13.9,7.5,13.8c-0.3,0-0.5,0-0.8,0
	v10.7c0.2,2.8,3.3,2.7,3.3,2.7v0.5H0v-0.5h0.1c0.5,0,2.9-0.1,3.2-2.5V13.1H4c0.6,0,1.1,0,1.7,0c0.6,0,1.2,0,1.8-0.1h0.1
	c0,0,0.1,0,0.2,0h0c0,0,0,0,0.1,0H8L5.5,9.5L4.4,7.9c-0.7-1-1.1-2.2-1.1-3.4V3.3C3,0.7,0,0.8,0,0.8V0.3h10v0.5c0,0-3.1-0.1-3.3,2.5
	v0.6c0,0.9,0.3,1.8,0.8,2.5l3.5,4.8c0.1-0.1,0.2-0.2,0.3-0.3c0,0,0-0.1,0.1-0.1l0.1-0.1c0,0,0.1-0.1,0.1-0.1v0l5-6.5
	C18.7,0.8,14.6,1,14.6,1V0.3h7.9v0.6c0,0,0,0-0.2,0c-0.2,0-0.4,0-0.7,0.1c-1.3,0.3-2.5,1-3.4,2.1l-6.8,8.8l2,2.8l0.3,0.4l6.8,9.5
	c1.5,1.8,2.8,2.2,3.2,2.2c0.1,0,0.1,0,0.1,0V27.7z"/>
<path d="M55.2,27.1v0.6h-9.4v-0.6c0,0,3.1,0.1,2.7-2.9c0-0.3-0.1-0.6-0.2-1l-1.8-4.6l-0.5-1.3h-9.6l-0.5,1.3L34,23
	c-0.3,0.9-0.3,1.6-0.1,2.2c0.6,2,3.4,1.8,3.4,1.8v0.6h-7.6v-0.6c0,0,1.6-0.1,3-2.6l3.6-9.2l4.4-11.3l0.6-1.6l0.5-1.2l1.3-0.6h0v0
	c0,0,9,23,9.1,23.2c0.2,0.6,0.5,1.2,0.9,1.7c0.4,0.5,0.8,1,1.4,1.3c0.2,0.1,0.4,0.2,0.6,0.2L55.2,27.1z M45.7,16.5l-0.5-1.3l-4-10.4
	l0,0.1l-4,10.2l-0.5,1.3H45.7z"/>
<path d="M67.6,0.3l14.8,22.5v4.9h-0.9L65,2.5v21.9c0,0.2,0,0.4,0.1,0.7c0.5,2.2,3.2,2.1,3.2,2.1v0.5H61v-0.5c0,0,2.7,0.1,3.2-2.1
	c0-0.2,0.1-0.4,0.1-0.7v-21C64,0.7,61,0.9,61,0.9V0.3H67.6z M87,0.3v0.5c0,0-3.1-0.1-3.3,2.7v11.7l0,0.1v4.9h-0.9L69.8,0.3h4.1
	L83,14.1V3.5c-0.2-2.8-3.6-2.7-3.6-2.7V0.3H87z"/>
<path d="M107.4,21.8c0,0.6,0,1.1-0.1,1.7c-0.3,1.4-1.1,2.6-2.3,3.4c-0.9,0.6-2,1-3.1,1.1c-0.8,0.1-1.5,0.2-2.3,0.1
	c-0.8-0.1-1.5-0.2-2.3-0.5c-0.4-0.1-0.7-0.3-1.1-0.5c-0.3-0.2-0.6-0.5-1-0.6c-0.3-0.1-0.6-0.2-0.9,0c-0.2,0.2-0.4,0.6-0.5,0.9
	c0,0.1-0.1,0.3-0.1,0.5h-0.6l0.1-3.8l0-4.1h0.8v0.2c0,1.1,0.3,2.2,0.6,3.2c0.3,0.8,0.7,1.5,1.2,2.2c0.3,0.4,0.6,0.7,1,1
	c0.4,0.4,0.8,0.5,1.4,0.7l0.9,0.2c0.7,0.1,1.4,0.1,2.1,0c2-0.4,3-2.1,3.3-3.9c0.5-3.1-3.9-5.7-7.5-7.8c-3.6-2.1-3.6-5.3-3.6-5.3V9.2
	l3.6,2.2c0.8,0.9,2,1.8,3.8,2.7C105,16.2,107.4,19.1,107.4,21.8z M96.1,6.5c-0.1-1.1,0-2.2,0.5-3.2c0.5-1,1.4-1.8,2.5-2.4
	c0.8-0.3,1.6-0.6,2.5-0.6c0.3,0,0.6,0,0.9,0h0.1c0.5,0,1.1,0.1,1.6,0.2c0.8,0.2,1.5,0.5,2.1,1c0.5,0.3,1.2,0.8,1.7,0.2
	c0.2-0.3,0.3-0.5,0.4-0.8l0.1-0.4h0.6l-0.1,3.7v3h-0.7c-0.1-0.7-0.3-1.5-0.5-2.2c-0.3-0.8-0.6-1.5-1.2-2.2c-0.3-0.3-0.6-0.7-0.9-1
	c-0.5-0.3-1-0.5-1.5-0.6c-1.3-0.4-2.8-0.4-3.9,0.4c-0.5,0.3-0.9,0.7-1.2,1.2c0,0-3,4,4.3,7.5c4.4,2.1,6.8,5,6.8,7.7
	c0,0.5,0,1-0.1,1.5l-3.3-2c-1.2-2.2-4.3-4-7.1-5.5C96.1,9.7,96.1,6.5,96.1,6.5z"/>
<path d="M141.7,27.1v0.6h-9.4v-0.6c0,0,3.1,0.1,2.7-2.9c0-0.3-0.1-0.6-0.2-1l-1.8-4.6l-0.5-1.3h-9.6l-0.5,1.3l-1.7,4.5
	c-0.3,0.9-0.3,1.6-0.1,2.2c0.6,2,3.4,1.8,3.4,1.8v0.6h-7.6v-0.6c0,0,1.6-0.1,3-2.6l3.6-9.2l4.4-11.3l0.6-1.6l0.5-1.2l1.3-0.6h0v0
	c0,0,9,23,9,23.2c0.2,0.6,0.5,1.2,0.9,1.7c0.4,0.5,0.8,1,1.4,1.3c0.2,0.1,0.4,0.2,0.6,0.2L141.7,27.1z M132.1,16.5l-0.5-1.3l-4-10.4
	l0,0.1l-4,10.2l-0.5,1.3H132.1z"/>
</svg>
